<svg width="10" height="9" viewBox="0 0 10 9" fill="none" xmlns="http://www.w3.org/2000/svg">
<path d="M1.20117 8.27832C1.44531 8.52246 1.85547 8.5127 2.08984 8.2832L5 5.37305L7.90527 8.2832C8.14453 8.52246 8.55469 8.52246 8.79395 8.27832C9.0332 8.03418 9.03809 7.62891 8.79883 7.38965L5.89355 4.47949L8.79883 1.57422C9.03809 1.33496 9.03809 0.929688 8.79395 0.685547C8.5498 0.446289 8.14453 0.441406 7.90527 0.680664L5 3.59082L2.08984 0.680664C1.85547 0.451172 1.44043 0.441406 1.20117 0.685547C0.961914 0.929688 0.966797 1.33984 1.19629 1.56934L4.10645 4.47949L1.19629 7.39453C0.966797 7.62402 0.957031 8.03906 1.20117 8.27832Z" fill="white"/>
</svg>
