<svg width="19" height="21" viewBox="0 0 19 21" fill="none" xmlns="http://www.w3.org/2000/svg">
<path d="M18.0126 2.19998C17.9584 2.20414 12.4209 2.67914 9.7876 0.199976C9.62927 0.0458089 9.37926 0.0458089 9.21676 0.199976C6.58343 2.67914 1.0501 2.20414 0.991764 2.19998C0.875098 2.18748 0.762598 2.22914 0.675098 2.30831C0.587598 2.38748 0.537598 2.49581 0.537598 2.61248V6.47498C0.537598 19.3791 9.3501 20.9 9.4376 20.9125C9.45843 20.9166 9.48343 20.9166 9.50426 20.9166C9.5251 20.9166 9.54593 20.9166 9.56676 20.9125C9.65426 20.9 18.4668 19.3791 18.4668 6.47498V2.61248C18.4668 2.49581 18.4168 2.38748 18.3334 2.30831C18.2459 2.22914 18.1293 2.18748 18.0126 2.19998V2.19998ZM13.9543 11.5583C13.9543 11.7875 13.7668 11.975 13.5376 11.975H10.9709V14.5416C10.9709 14.7708 10.7834 14.9583 10.5543 14.9583H8.44593C8.21676 14.9583 8.02926 14.7708 8.02926 14.5416V11.975H5.4626C5.23343 11.975 5.04593 11.7875 5.04593 11.5583V9.44998C5.04593 9.22081 5.23343 9.03331 5.4626 9.03331H8.02926V6.46664C8.02926 6.23748 8.21676 6.04998 8.44593 6.04998H10.5543C10.7834 6.04998 10.9709 6.23748 10.9709 6.46664V9.03331H13.5376C13.7668 9.03331 13.9543 9.22081 13.9543 9.44998V11.5583Z" fill="#000"/>
</svg>
