<svg width="16" height="16" viewBox="0 0 16 16" fill="none" xmlns="http://www.w3.org/2000/svg">
<g clip-path="url(#clip0_1_1170)">
<path d="M1.04833 3.50062C1.63034 4.85431 2.61289 6.19325 3.98782 6.77038C4.14477 6.83577 4.32297 6.88482 4.50607 6.92569C4.87228 6.37964 5.29244 5.93658 5.78454 5.57365C6.20795 5.26303 6.65102 5.01943 7.10713 4.82814C6.97634 4.73658 6.83903 4.65321 6.69514 4.578C6.12294 4.27882 5.50334 4.01561 4.90006 3.73277C5.46736 3.88645 6.11803 3.94367 6.66081 4.14149C6.99923 4.26576 7.31149 4.43742 7.60249 4.64178C8.47062 4.34585 9.37798 4.20362 10.2837 4.09573C9.54964 2.87612 7.98342 1.89683 6.80304 1.45378C5.57035 0.991099 4.17418 0.933879 2.80252 0.791662C1.9622 0.704997 1.04831 0.391119 0.379649 0.0249083C0.227606 -0.05847 0.0657541 0.0804938 0.11807 0.248885C0.446695 1.30009 0.613451 2.49027 1.04833 3.50062Z" fill="#000" fill-opacity="0.7"/>
<path d="M15.5414 3.34041C13.9948 4.18074 12.2209 4.28373 10.4831 4.48319C9.63462 4.58128 8.79428 4.70224 7.99482 4.94422C7.82152 4.99652 7.64824 5.05539 7.4782 5.12078C6.97303 5.3137 6.48584 5.5671 6.02644 5.90552C5.59484 6.22267 5.24171 6.5987 4.94416 7.01233C4.47005 7.6728 4.13981 8.43301 3.86842 9.22267C3.37306 10.6564 3.14582 12.1801 3.18996 13.6957C3.20794 14.3104 3.21775 14.9496 3.36979 15.5496C3.40412 15.682 3.43682 15.8504 3.53982 15.9485C3.67388 16.0776 3.9142 15.9452 3.86025 15.7572C3.47115 14.4313 3.71311 12.8815 4.25098 11.6145C4.86896 10.1578 6.06241 9.29131 7.52071 8.76327C7.90817 8.62267 8.30382 8.50005 8.70598 8.38398C8.71416 8.38073 8.72233 8.38073 8.7305 8.38073C8.81061 8.38073 8.84495 8.49842 8.76157 8.53604C8.28746 8.75021 7.81662 8.96601 7.36865 9.19979C5.17466 10.3442 4.21663 13.009 5.03897 13.009C5.10602 13.009 5.18447 12.991 5.27439 12.9534C6.54304 12.4287 8.05039 12.4238 9.44492 12.1655C9.93538 12.0755 10.4128 11.9529 10.8607 11.7666C12.6395 11.0243 13.9114 9.57256 14.6683 7.82652C15.2323 6.52353 15.4514 4.98512 15.8781 3.63144C15.9337 3.45814 15.8111 3.30938 15.6607 3.30938C15.6231 3.30772 15.5822 3.31754 15.5414 3.34041Z" fill="#000"/>
</g>
<defs>
<clipPath id="clip0_1_1170">
<rect width="16" height="16" fill="#000"/>
</clipPath>
</defs>
</svg>
