<svg width="19" height="21" viewBox="0 0 19 21" fill="none" xmlns="http://www.w3.org/2000/svg">
<path d="M18.0125 2.19998C17.9583 2.20414 12.4208 2.67914 9.78748 0.199976C9.62914 0.0458089 9.37914 0.0458089 9.21664 0.199976C6.58331 2.67914 1.04998 2.20414 0.991642 2.19998C0.874976 2.18748 0.762476 2.22914 0.674976 2.30831C0.587476 2.38748 0.537476 2.49581 0.537476 2.61248V6.47498C0.537476 19.3791 9.34998 20.9 9.43748 20.9125C9.45831 20.9166 9.48331 20.9166 9.50414 20.9166C9.52498 20.9166 9.54581 20.9166 9.56664 20.9125C9.65414 20.9 18.4666 19.3791 18.4666 6.47498V2.61248C18.4666 2.49581 18.4166 2.38748 18.3333 2.30831C18.2458 2.22914 18.1291 2.18748 18.0125 2.19998ZM13.9541 11.5583C13.9541 11.7875 13.7666 11.975 13.5375 11.975H10.9708V14.5416C10.9708 14.7708 10.7833 14.9583 10.5541 14.9583H8.44581C8.21664 14.9583 8.02914 14.7708 8.02914 14.5416V11.975H5.46248C5.23331 11.975 5.04581 11.7875 5.04581 11.5583V9.44998C5.04581 9.22081 5.23331 9.03331 5.46248 9.03331H8.02914V6.46664C8.02914 6.23748 8.21664 6.04998 8.44581 6.04998H10.5541C10.7833 6.04998 10.9708 6.23748 10.9708 6.46664V9.03331H13.5375C13.7666 9.03331 13.9541 9.22081 13.9541 9.44998V11.5583Z" fill="#000"/>
</svg>
